<svg width="667" height="566" viewBox="0 0 667 566" fill="none" xmlns="http://www.w3.org/2000/svg">
<rect width="667" height="566" fill="white"/>
<rect width="150" height="566" fill="#F0F0F0"/>
<circle cx="29" cy="113" r="13" fill="#D9D9D9"/>
<circle cx="29" cy="168" r="13" fill="#D9D9D9"/>
<circle cx="29" cy="223" r="13" fill="#D9D9D9"/>
<circle cx="29" cy="278" r="13" fill="#D9D9D9"/>
<circle cx="29" cy="333" r="13" fill="#D9D9D9"/>
<circle cx="29" cy="388" r="13" fill="#D9D9D9"/>
<path d="M52.646 118V114.458H54.816C55.908 114.458 56.804 114.164 57.518 113.59C58.218 113.016 58.568 112.246 58.568 111.252C58.568 110.314 58.218 109.558 57.518 108.998C56.818 108.438 55.922 108.158 54.816 108.158H51.302V118H52.646ZM54.746 109.348C55.46 109.348 56.048 109.516 56.482 109.866C56.93 110.216 57.154 110.692 57.154 111.266C57.154 111.882 56.93 112.372 56.482 112.736C56.034 113.1 55.446 113.282 54.732 113.282H52.632V109.362L54.746 109.348ZM63.479 112.05H63.647C63.703 112.05 63.759 112.064 63.857 112.078V110.86C63.829 110.846 63.773 110.846 63.689 110.846H63.479C62.989 110.846 62.555 110.972 62.149 111.21C61.771 111.448 61.449 111.798 61.211 112.26V110.944H59.979V118.014H61.267V114.304C61.267 113.646 61.463 113.114 61.855 112.694C62.247 112.274 62.779 112.064 63.437 112.064L63.479 112.05ZM64.615 114.458C64.615 115.508 64.979 116.39 65.693 117.104C66.407 117.818 67.303 118.182 68.381 118.182C69.459 118.182 70.355 117.832 71.069 117.118C71.783 116.404 72.147 115.522 72.147 114.472C72.147 113.45 71.783 112.568 71.069 111.854C70.355 111.14 69.459 110.79 68.381 110.79C67.303 110.79 66.407 111.14 65.693 111.854C64.979 112.568 64.615 113.45 64.615 114.5V114.458ZM70.873 114.5C70.873 115.214 70.635 115.816 70.159 116.306C69.683 116.796 69.095 117.034 68.381 117.034C67.667 117.034 67.079 116.796 66.603 116.306C66.127 115.816 65.889 115.214 65.889 114.5C65.889 113.814 66.127 113.212 66.603 112.722C67.079 112.232 67.667 111.994 68.367 111.994C69.067 111.994 69.655 112.232 70.131 112.722C70.607 113.212 70.845 113.814 70.845 114.5H70.873ZM76.8667 118.168C77.4407 118.168 77.9587 118.042 78.4347 117.79C78.8967 117.538 79.3027 117.188 79.6247 116.74V117.986H80.8427V107.612H79.5547V112.05C79.2327 111.63 78.8407 111.308 78.3787 111.084C77.9167 110.86 77.4127 110.748 76.8667 110.748C75.8307 110.748 74.9767 111.098 74.2907 111.812C73.6047 112.526 73.2687 113.408 73.2687 114.472C73.2687 115.522 73.6047 116.404 74.2767 117.104C74.9487 117.804 75.7887 118.154 76.8107 118.154L76.8667 118.168ZM74.5847 114.458C74.5847 113.744 74.8227 113.142 75.2987 112.652C75.7747 112.162 76.3627 111.924 77.0767 111.924C77.7907 111.924 78.3787 112.162 78.8547 112.652C79.3307 113.142 79.5687 113.744 79.5687 114.458C79.5687 115.172 79.3307 115.774 78.8547 116.264C78.3787 116.754 77.7907 116.992 77.0767 116.992C76.3627 116.992 75.7747 116.754 75.2987 116.264C74.8227 115.774 74.5847 115.172 74.5847 114.458ZM86.0102 116.992C85.4922 116.992 85.0862 116.824 84.7922 116.488C84.4982 116.138 84.3442 115.69 84.3442 115.116V110.944H83.0562V115.41C83.0562 116.25 83.2942 116.922 83.7842 117.412C84.2742 117.916 84.9182 118.168 85.7162 118.168C86.1782 118.168 86.5842 118.07 86.9622 117.86C87.3402 117.65 87.6482 117.356 87.8862 116.978V117.986H89.1182V110.916H87.8302V114.962C87.8302 115.536 87.6622 116.012 87.3262 116.39C86.9902 116.768 86.5562 116.964 86.0102 116.964V116.992ZM94.59 110.762C93.512 110.762 92.616 111.112 91.902 111.826C91.188 112.54 90.824 113.422 90.824 114.472C90.824 115.522 91.188 116.404 91.902 117.118C92.616 117.832 93.512 118.196 94.59 118.196C95.5 118.196 96.284 117.93 96.942 117.384C97.6 116.838 98.034 116.124 98.216 115.242H96.942C96.788 115.76 96.494 116.18 96.06 116.502C95.626 116.824 95.136 116.992 94.59 116.992C93.89 116.992 93.302 116.754 92.826 116.264C92.35 115.774 92.112 115.172 92.112 114.458C92.112 113.744 92.35 113.156 92.826 112.68C93.302 112.204 93.89 111.966 94.59 111.966C95.136 111.966 95.612 112.12 96.032 112.428C96.452 112.736 96.746 113.156 96.9 113.674H98.188C98.006 112.82 97.586 112.12 96.928 111.574C96.27 111.028 95.5 110.762 94.59 110.762ZM100.17 110.93H98.9802V112.078H100.17V115.802C100.17 116.6 100.352 117.188 100.716 117.58C101.08 117.972 101.626 118.168 102.354 118.168C102.592 118.168 102.83 118.14 103.04 118.084C103.264 118.028 103.474 117.944 103.67 117.818V116.67C103.502 116.782 103.32 116.866 103.138 116.936C102.97 116.992 102.802 117.02 102.62 117.02C102.214 117.02 101.92 116.922 101.738 116.726C101.556 116.544 101.472 116.194 101.472 115.704V112.064H103.32V110.916H101.472V108.41L100.184 108.718L100.17 110.93ZM111.125 108.158L107.359 118H108.731L109.613 115.592H113.981L114.863 118H116.305L112.553 108.158H111.125ZM113.561 114.458H110.033L111.797 109.684L113.561 114.458Z" fill="black"/>
<path d="M52.646 173V169.458H54.816C55.908 169.458 56.804 169.164 57.518 168.59C58.218 168.016 58.568 167.246 58.568 166.252C58.568 165.314 58.218 164.558 57.518 163.998C56.818 163.438 55.922 163.158 54.816 163.158H51.302V173H52.646ZM54.746 164.348C55.46 164.348 56.048 164.516 56.482 164.866C56.93 165.216 57.154 165.692 57.154 166.266C57.154 166.882 56.93 167.372 56.482 167.736C56.034 168.1 55.446 168.282 54.732 168.282H52.632V164.362L54.746 164.348ZM63.479 167.05H63.647C63.703 167.05 63.759 167.064 63.857 167.078V165.86C63.829 165.846 63.773 165.846 63.689 165.846H63.479C62.989 165.846 62.555 165.972 62.149 166.21C61.771 166.448 61.449 166.798 61.211 167.26V165.944H59.979V173.014H61.267V169.304C61.267 168.646 61.463 168.114 61.855 167.694C62.247 167.274 62.779 167.064 63.437 167.064L63.479 167.05ZM64.615 169.458C64.615 170.508 64.979 171.39 65.693 172.104C66.407 172.818 67.303 173.182 68.381 173.182C69.459 173.182 70.355 172.832 71.069 172.118C71.783 171.404 72.147 170.522 72.147 169.472C72.147 168.45 71.783 167.568 71.069 166.854C70.355 166.14 69.459 165.79 68.381 165.79C67.303 165.79 66.407 166.14 65.693 166.854C64.979 167.568 64.615 168.45 64.615 169.5V169.458ZM70.873 169.5C70.873 170.214 70.635 170.816 70.159 171.306C69.683 171.796 69.095 172.034 68.381 172.034C67.667 172.034 67.079 171.796 66.603 171.306C66.127 170.816 65.889 170.214 65.889 169.5C65.889 168.814 66.127 168.212 66.603 167.722C67.079 167.232 67.667 166.994 68.367 166.994C69.067 166.994 69.655 167.232 70.131 167.722C70.607 168.212 70.845 168.814 70.845 169.5H70.873ZM76.8667 173.168C77.4407 173.168 77.9587 173.042 78.4347 172.79C78.8967 172.538 79.3027 172.188 79.6247 171.74V172.986H80.8427V162.612H79.5547V167.05C79.2327 166.63 78.8407 166.308 78.3787 166.084C77.9167 165.86 77.4127 165.748 76.8667 165.748C75.8307 165.748 74.9767 166.098 74.2907 166.812C73.6047 167.526 73.2687 168.408 73.2687 169.472C73.2687 170.522 73.6047 171.404 74.2767 172.104C74.9487 172.804 75.7887 173.154 76.8107 173.154L76.8667 173.168ZM74.5847 169.458C74.5847 168.744 74.8227 168.142 75.2987 167.652C75.7747 167.162 76.3627 166.924 77.0767 166.924C77.7907 166.924 78.3787 167.162 78.8547 167.652C79.3307 168.142 79.5687 168.744 79.5687 169.458C79.5687 170.172 79.3307 170.774 78.8547 171.264C78.3787 171.754 77.7907 171.992 77.0767 171.992C76.3627 171.992 75.7747 171.754 75.2987 171.264C74.8227 170.774 74.5847 170.172 74.5847 169.458ZM86.0102 171.992C85.4922 171.992 85.0862 171.824 84.7922 171.488C84.4982 171.138 84.3442 170.69 84.3442 170.116V165.944H83.0562V170.41C83.0562 171.25 83.2942 171.922 83.7842 172.412C84.2742 172.916 84.9182 173.168 85.7162 173.168C86.1782 173.168 86.5842 173.07 86.9622 172.86C87.3402 172.65 87.6482 172.356 87.8862 171.978V172.986H89.1182V165.916H87.8302V169.962C87.8302 170.536 87.6622 171.012 87.3262 171.39C86.9902 171.768 86.5562 171.964 86.0102 171.964V171.992ZM94.59 165.762C93.512 165.762 92.616 166.112 91.902 166.826C91.188 167.54 90.824 168.422 90.824 169.472C90.824 170.522 91.188 171.404 91.902 172.118C92.616 172.832 93.512 173.196 94.59 173.196C95.5 173.196 96.284 172.93 96.942 172.384C97.6 171.838 98.034 171.124 98.216 170.242H96.942C96.788 170.76 96.494 171.18 96.06 171.502C95.626 171.824 95.136 171.992 94.59 171.992C93.89 171.992 93.302 171.754 92.826 171.264C92.35 170.774 92.112 170.172 92.112 169.458C92.112 168.744 92.35 168.156 92.826 167.68C93.302 167.204 93.89 166.966 94.59 166.966C95.136 166.966 95.612 167.12 96.032 167.428C96.452 167.736 96.746 168.156 96.9 168.674H98.188C98.006 167.82 97.586 167.12 96.928 166.574C96.27 166.028 95.5 165.762 94.59 165.762ZM100.17 165.93H98.9802V167.078H100.17V170.802C100.17 171.6 100.352 172.188 100.716 172.58C101.08 172.972 101.626 173.168 102.354 173.168C102.592 173.168 102.83 173.14 103.04 173.084C103.264 173.028 103.474 172.944 103.67 172.818V171.67C103.502 171.782 103.32 171.866 103.138 171.936C102.97 171.992 102.802 172.02 102.62 172.02C102.214 172.02 101.92 171.922 101.738 171.726C101.556 171.544 101.472 171.194 101.472 170.704V167.064H103.32V165.916H101.472V163.41L100.184 163.718L100.17 165.93ZM111.125 163.158L107.359 173H108.731L109.613 170.592H113.981L114.863 173H116.305L112.553 163.158H111.125ZM113.561 169.458H110.033L111.797 164.684L113.561 169.458Z" fill="black"/>
<path d="M52.646 228V224.458H54.816C55.908 224.458 56.804 224.164 57.518 223.59C58.218 223.016 58.568 222.246 58.568 221.252C58.568 220.314 58.218 219.558 57.518 218.998C56.818 218.438 55.922 218.158 54.816 218.158H51.302V228H52.646ZM54.746 219.348C55.46 219.348 56.048 219.516 56.482 219.866C56.93 220.216 57.154 220.692 57.154 221.266C57.154 221.882 56.93 222.372 56.482 222.736C56.034 223.1 55.446 223.282 54.732 223.282H52.632V219.362L54.746 219.348ZM63.479 222.05H63.647C63.703 222.05 63.759 222.064 63.857 222.078V220.86C63.829 220.846 63.773 220.846 63.689 220.846H63.479C62.989 220.846 62.555 220.972 62.149 221.21C61.771 221.448 61.449 221.798 61.211 222.26V220.944H59.979V228.014H61.267V224.304C61.267 223.646 61.463 223.114 61.855 222.694C62.247 222.274 62.779 222.064 63.437 222.064L63.479 222.05ZM64.615 224.458C64.615 225.508 64.979 226.39 65.693 227.104C66.407 227.818 67.303 228.182 68.381 228.182C69.459 228.182 70.355 227.832 71.069 227.118C71.783 226.404 72.147 225.522 72.147 224.472C72.147 223.45 71.783 222.568 71.069 221.854C70.355 221.14 69.459 220.79 68.381 220.79C67.303 220.79 66.407 221.14 65.693 221.854C64.979 222.568 64.615 223.45 64.615 224.5V224.458ZM70.873 224.5C70.873 225.214 70.635 225.816 70.159 226.306C69.683 226.796 69.095 227.034 68.381 227.034C67.667 227.034 67.079 226.796 66.603 226.306C66.127 225.816 65.889 225.214 65.889 224.5C65.889 223.814 66.127 223.212 66.603 222.722C67.079 222.232 67.667 221.994 68.367 221.994C69.067 221.994 69.655 222.232 70.131 222.722C70.607 223.212 70.845 223.814 70.845 224.5H70.873ZM76.8667 228.168C77.4407 228.168 77.9587 228.042 78.4347 227.79C78.8967 227.538 79.3027 227.188 79.6247 226.74V227.986H80.8427V217.612H79.5547V222.05C79.2327 221.63 78.8407 221.308 78.3787 221.084C77.9167 220.86 77.4127 220.748 76.8667 220.748C75.8307 220.748 74.9767 221.098 74.2907 221.812C73.6047 222.526 73.2687 223.408 73.2687 224.472C73.2687 225.522 73.6047 226.404 74.2767 227.104C74.9487 227.804 75.7887 228.154 76.8107 228.154L76.8667 228.168ZM74.5847 224.458C74.5847 223.744 74.8227 223.142 75.2987 222.652C75.7747 222.162 76.3627 221.924 77.0767 221.924C77.7907 221.924 78.3787 222.162 78.8547 222.652C79.3307 223.142 79.5687 223.744 79.5687 224.458C79.5687 225.172 79.3307 225.774 78.8547 226.264C78.3787 226.754 77.7907 226.992 77.0767 226.992C76.3627 226.992 75.7747 226.754 75.2987 226.264C74.8227 225.774 74.5847 225.172 74.5847 224.458ZM86.0102 226.992C85.4922 226.992 85.0862 226.824 84.7922 226.488C84.4982 226.138 84.3442 225.69 84.3442 225.116V220.944H83.0562V225.41C83.0562 226.25 83.2942 226.922 83.7842 227.412C84.2742 227.916 84.9182 228.168 85.7162 228.168C86.1782 228.168 86.5842 228.07 86.9622 227.86C87.3402 227.65 87.6482 227.356 87.8862 226.978V227.986H89.1182V220.916H87.8302V224.962C87.8302 225.536 87.6622 226.012 87.3262 226.39C86.9902 226.768 86.5562 226.964 86.0102 226.964V226.992ZM94.59 220.762C93.512 220.762 92.616 221.112 91.902 221.826C91.188 222.54 90.824 223.422 90.824 224.472C90.824 225.522 91.188 226.404 91.902 227.118C92.616 227.832 93.512 228.196 94.59 228.196C95.5 228.196 96.284 227.93 96.942 227.384C97.6 226.838 98.034 226.124 98.216 225.242H96.942C96.788 225.76 96.494 226.18 96.06 226.502C95.626 226.824 95.136 226.992 94.59 226.992C93.89 226.992 93.302 226.754 92.826 226.264C92.35 225.774 92.112 225.172 92.112 224.458C92.112 223.744 92.35 223.156 92.826 222.68C93.302 222.204 93.89 221.966 94.59 221.966C95.136 221.966 95.612 222.12 96.032 222.428C96.452 222.736 96.746 223.156 96.9 223.674H98.188C98.006 222.82 97.586 222.12 96.928 221.574C96.27 221.028 95.5 220.762 94.59 220.762ZM100.17 220.93H98.9802V222.078H100.17V225.802C100.17 226.6 100.352 227.188 100.716 227.58C101.08 227.972 101.626 228.168 102.354 228.168C102.592 228.168 102.83 228.14 103.04 228.084C103.264 228.028 103.474 227.944 103.67 227.818V226.67C103.502 226.782 103.32 226.866 103.138 226.936C102.97 226.992 102.802 227.02 102.62 227.02C102.214 227.02 101.92 226.922 101.738 226.726C101.556 226.544 101.472 226.194 101.472 225.704V222.064H103.32V220.916H101.472V218.41L100.184 218.718L100.17 220.93ZM111.125 218.158L107.359 228H108.731L109.613 225.592H113.981L114.863 228H116.305L112.553 218.158H111.125ZM113.561 224.458H110.033L111.797 219.684L113.561 224.458Z" fill="black"/>
<path d="M52.646 283V279.458H54.816C55.908 279.458 56.804 279.164 57.518 278.59C58.218 278.016 58.568 277.246 58.568 276.252C58.568 275.314 58.218 274.558 57.518 273.998C56.818 273.438 55.922 273.158 54.816 273.158H51.302V283H52.646ZM54.746 274.348C55.46 274.348 56.048 274.516 56.482 274.866C56.93 275.216 57.154 275.692 57.154 276.266C57.154 276.882 56.93 277.372 56.482 277.736C56.034 278.1 55.446 278.282 54.732 278.282H52.632V274.362L54.746 274.348ZM63.479 277.05H63.647C63.703 277.05 63.759 277.064 63.857 277.078V275.86C63.829 275.846 63.773 275.846 63.689 275.846H63.479C62.989 275.846 62.555 275.972 62.149 276.21C61.771 276.448 61.449 276.798 61.211 277.26V275.944H59.979V283.014H61.267V279.304C61.267 278.646 61.463 278.114 61.855 277.694C62.247 277.274 62.779 277.064 63.437 277.064L63.479 277.05ZM64.615 279.458C64.615 280.508 64.979 281.39 65.693 282.104C66.407 282.818 67.303 283.182 68.381 283.182C69.459 283.182 70.355 282.832 71.069 282.118C71.783 281.404 72.147 280.522 72.147 279.472C72.147 278.45 71.783 277.568 71.069 276.854C70.355 276.14 69.459 275.79 68.381 275.79C67.303 275.79 66.407 276.14 65.693 276.854C64.979 277.568 64.615 278.45 64.615 279.5V279.458ZM70.873 279.5C70.873 280.214 70.635 280.816 70.159 281.306C69.683 281.796 69.095 282.034 68.381 282.034C67.667 282.034 67.079 281.796 66.603 281.306C66.127 280.816 65.889 280.214 65.889 279.5C65.889 278.814 66.127 278.212 66.603 277.722C67.079 277.232 67.667 276.994 68.367 276.994C69.067 276.994 69.655 277.232 70.131 277.722C70.607 278.212 70.845 278.814 70.845 279.5H70.873ZM76.8667 283.168C77.4407 283.168 77.9587 283.042 78.4347 282.79C78.8967 282.538 79.3027 282.188 79.6247 281.74V282.986H80.8427V272.612H79.5547V277.05C79.2327 276.63 78.8407 276.308 78.3787 276.084C77.9167 275.86 77.4127 275.748 76.8667 275.748C75.8307 275.748 74.9767 276.098 74.2907 276.812C73.6047 277.526 73.2687 278.408 73.2687 279.472C73.2687 280.522 73.6047 281.404 74.2767 282.104C74.9487 282.804 75.7887 283.154 76.8107 283.154L76.8667 283.168ZM74.5847 279.458C74.5847 278.744 74.8227 278.142 75.2987 277.652C75.7747 277.162 76.3627 276.924 77.0767 276.924C77.7907 276.924 78.3787 277.162 78.8547 277.652C79.3307 278.142 79.5687 278.744 79.5687 279.458C79.5687 280.172 79.3307 280.774 78.8547 281.264C78.3787 281.754 77.7907 281.992 77.0767 281.992C76.3627 281.992 75.7747 281.754 75.2987 281.264C74.8227 280.774 74.5847 280.172 74.5847 279.458ZM86.0102 281.992C85.4922 281.992 85.0862 281.824 84.7922 281.488C84.4982 281.138 84.3442 280.69 84.3442 280.116V275.944H83.0562V280.41C83.0562 281.25 83.2942 281.922 83.7842 282.412C84.2742 282.916 84.9182 283.168 85.7162 283.168C86.1782 283.168 86.5842 283.07 86.9622 282.86C87.3402 282.65 87.6482 282.356 87.8862 281.978V282.986H89.1182V275.916H87.8302V279.962C87.8302 280.536 87.6622 281.012 87.3262 281.39C86.9902 281.768 86.5562 281.964 86.0102 281.964V281.992ZM94.59 275.762C93.512 275.762 92.616 276.112 91.902 276.826C91.188 277.54 90.824 278.422 90.824 279.472C90.824 280.522 91.188 281.404 91.902 282.118C92.616 282.832 93.512 283.196 94.59 283.196C95.5 283.196 96.284 282.93 96.942 282.384C97.6 281.838 98.034 281.124 98.216 280.242H96.942C96.788 280.76 96.494 281.18 96.06 281.502C95.626 281.824 95.136 281.992 94.59 281.992C93.89 281.992 93.302 281.754 92.826 281.264C92.35 280.774 92.112 280.172 92.112 279.458C92.112 278.744 92.35 278.156 92.826 277.68C93.302 277.204 93.89 276.966 94.59 276.966C95.136 276.966 95.612 277.12 96.032 277.428C96.452 277.736 96.746 278.156 96.9 278.674H98.188C98.006 277.82 97.586 277.12 96.928 276.574C96.27 276.028 95.5 275.762 94.59 275.762ZM100.17 275.93H98.9802V277.078H100.17V280.802C100.17 281.6 100.352 282.188 100.716 282.58C101.08 282.972 101.626 283.168 102.354 283.168C102.592 283.168 102.83 283.14 103.04 283.084C103.264 283.028 103.474 282.944 103.67 282.818V281.67C103.502 281.782 103.32 281.866 103.138 281.936C102.97 281.992 102.802 282.02 102.62 282.02C102.214 282.02 101.92 281.922 101.738 281.726C101.556 281.544 101.472 281.194 101.472 280.704V277.064H103.32V275.916H101.472V273.41L100.184 273.718L100.17 275.93ZM111.125 273.158L107.359 283H108.731L109.613 280.592H113.981L114.863 283H116.305L112.553 273.158H111.125ZM113.561 279.458H110.033L111.797 274.684L113.561 279.458Z" fill="black"/>
<path d="M52.646 338V334.458H54.816C55.908 334.458 56.804 334.164 57.518 333.59C58.218 333.016 58.568 332.246 58.568 331.252C58.568 330.314 58.218 329.558 57.518 328.998C56.818 328.438 55.922 328.158 54.816 328.158H51.302V338H52.646ZM54.746 329.348C55.46 329.348 56.048 329.516 56.482 329.866C56.93 330.216 57.154 330.692 57.154 331.266C57.154 331.882 56.93 332.372 56.482 332.736C56.034 333.1 55.446 333.282 54.732 333.282H52.632V329.362L54.746 329.348ZM63.479 332.05H63.647C63.703 332.05 63.759 332.064 63.857 332.078V330.86C63.829 330.846 63.773 330.846 63.689 330.846H63.479C62.989 330.846 62.555 330.972 62.149 331.21C61.771 331.448 61.449 331.798 61.211 332.26V330.944H59.979V338.014H61.267V334.304C61.267 333.646 61.463 333.114 61.855 332.694C62.247 332.274 62.779 332.064 63.437 332.064L63.479 332.05ZM64.615 334.458C64.615 335.508 64.979 336.39 65.693 337.104C66.407 337.818 67.303 338.182 68.381 338.182C69.459 338.182 70.355 337.832 71.069 337.118C71.783 336.404 72.147 335.522 72.147 334.472C72.147 333.45 71.783 332.568 71.069 331.854C70.355 331.14 69.459 330.79 68.381 330.79C67.303 330.79 66.407 331.14 65.693 331.854C64.979 332.568 64.615 333.45 64.615 334.5V334.458ZM70.873 334.5C70.873 335.214 70.635 335.816 70.159 336.306C69.683 336.796 69.095 337.034 68.381 337.034C67.667 337.034 67.079 336.796 66.603 336.306C66.127 335.816 65.889 335.214 65.889 334.5C65.889 333.814 66.127 333.212 66.603 332.722C67.079 332.232 67.667 331.994 68.367 331.994C69.067 331.994 69.655 332.232 70.131 332.722C70.607 333.212 70.845 333.814 70.845 334.5H70.873ZM76.8667 338.168C77.4407 338.168 77.9587 338.042 78.4347 337.79C78.8967 337.538 79.3027 337.188 79.6247 336.74V337.986H80.8427V327.612H79.5547V332.05C79.2327 331.63 78.8407 331.308 78.3787 331.084C77.9167 330.86 77.4127 330.748 76.8667 330.748C75.8307 330.748 74.9767 331.098 74.2907 331.812C73.6047 332.526 73.2687 333.408 73.2687 334.472C73.2687 335.522 73.6047 336.404 74.2767 337.104C74.9487 337.804 75.7887 338.154 76.8107 338.154L76.8667 338.168ZM74.5847 334.458C74.5847 333.744 74.8227 333.142 75.2987 332.652C75.7747 332.162 76.3627 331.924 77.0767 331.924C77.7907 331.924 78.3787 332.162 78.8547 332.652C79.3307 333.142 79.5687 333.744 79.5687 334.458C79.5687 335.172 79.3307 335.774 78.8547 336.264C78.3787 336.754 77.7907 336.992 77.0767 336.992C76.3627 336.992 75.7747 336.754 75.2987 336.264C74.8227 335.774 74.5847 335.172 74.5847 334.458ZM86.0102 336.992C85.4922 336.992 85.0862 336.824 84.7922 336.488C84.4982 336.138 84.3442 335.69 84.3442 335.116V330.944H83.0562V335.41C83.0562 336.25 83.2942 336.922 83.7842 337.412C84.2742 337.916 84.9182 338.168 85.7162 338.168C86.1782 338.168 86.5842 338.07 86.9622 337.86C87.3402 337.65 87.6482 337.356 87.8862 336.978V337.986H89.1182V330.916H87.8302V334.962C87.8302 335.536 87.6622 336.012 87.3262 336.39C86.9902 336.768 86.5562 336.964 86.0102 336.964V336.992ZM94.59 330.762C93.512 330.762 92.616 331.112 91.902 331.826C91.188 332.54 90.824 333.422 90.824 334.472C90.824 335.522 91.188 336.404 91.902 337.118C92.616 337.832 93.512 338.196 94.59 338.196C95.5 338.196 96.284 337.93 96.942 337.384C97.6 336.838 98.034 336.124 98.216 335.242H96.942C96.788 335.76 96.494 336.18 96.06 336.502C95.626 336.824 95.136 336.992 94.59 336.992C93.89 336.992 93.302 336.754 92.826 336.264C92.35 335.774 92.112 335.172 92.112 334.458C92.112 333.744 92.35 333.156 92.826 332.68C93.302 332.204 93.89 331.966 94.59 331.966C95.136 331.966 95.612 332.12 96.032 332.428C96.452 332.736 96.746 333.156 96.9 333.674H98.188C98.006 332.82 97.586 332.12 96.928 331.574C96.27 331.028 95.5 330.762 94.59 330.762ZM100.17 330.93H98.9802V332.078H100.17V335.802C100.17 336.6 100.352 337.188 100.716 337.58C101.08 337.972 101.626 338.168 102.354 338.168C102.592 338.168 102.83 338.14 103.04 338.084C103.264 338.028 103.474 337.944 103.67 337.818V336.67C103.502 336.782 103.32 336.866 103.138 336.936C102.97 336.992 102.802 337.02 102.62 337.02C102.214 337.02 101.92 336.922 101.738 336.726C101.556 336.544 101.472 336.194 101.472 335.704V332.064H103.32V330.916H101.472V328.41L100.184 328.718L100.17 330.93ZM111.125 328.158L107.359 338H108.731L109.613 335.592H113.981L114.863 338H116.305L112.553 328.158H111.125ZM113.561 334.458H110.033L111.797 329.684L113.561 334.458Z" fill="black"/>
<path d="M52.646 393V389.458H54.816C55.908 389.458 56.804 389.164 57.518 388.59C58.218 388.016 58.568 387.246 58.568 386.252C58.568 385.314 58.218 384.558 57.518 383.998C56.818 383.438 55.922 383.158 54.816 383.158H51.302V393H52.646ZM54.746 384.348C55.46 384.348 56.048 384.516 56.482 384.866C56.93 385.216 57.154 385.692 57.154 386.266C57.154 386.882 56.93 387.372 56.482 387.736C56.034 388.1 55.446 388.282 54.732 388.282H52.632V384.362L54.746 384.348ZM63.479 387.05H63.647C63.703 387.05 63.759 387.064 63.857 387.078V385.86C63.829 385.846 63.773 385.846 63.689 385.846H63.479C62.989 385.846 62.555 385.972 62.149 386.21C61.771 386.448 61.449 386.798 61.211 387.26V385.944H59.979V393.014H61.267V389.304C61.267 388.646 61.463 388.114 61.855 387.694C62.247 387.274 62.779 387.064 63.437 387.064L63.479 387.05ZM64.615 389.458C64.615 390.508 64.979 391.39 65.693 392.104C66.407 392.818 67.303 393.182 68.381 393.182C69.459 393.182 70.355 392.832 71.069 392.118C71.783 391.404 72.147 390.522 72.147 389.472C72.147 388.45 71.783 387.568 71.069 386.854C70.355 386.14 69.459 385.79 68.381 385.79C67.303 385.79 66.407 386.14 65.693 386.854C64.979 387.568 64.615 388.45 64.615 389.5V389.458ZM70.873 389.5C70.873 390.214 70.635 390.816 70.159 391.306C69.683 391.796 69.095 392.034 68.381 392.034C67.667 392.034 67.079 391.796 66.603 391.306C66.127 390.816 65.889 390.214 65.889 389.5C65.889 388.814 66.127 388.212 66.603 387.722C67.079 387.232 67.667 386.994 68.367 386.994C69.067 386.994 69.655 387.232 70.131 387.722C70.607 388.212 70.845 388.814 70.845 389.5H70.873ZM76.8667 393.168C77.4407 393.168 77.9587 393.042 78.4347 392.79C78.8967 392.538 79.3027 392.188 79.6247 391.74V392.986H80.8427V382.612H79.5547V387.05C79.2327 386.63 78.8407 386.308 78.3787 386.084C77.9167 385.86 77.4127 385.748 76.8667 385.748C75.8307 385.748 74.9767 386.098 74.2907 386.812C73.6047 387.526 73.2687 388.408 73.2687 389.472C73.2687 390.522 73.6047 391.404 74.2767 392.104C74.9487 392.804 75.7887 393.154 76.8107 393.154L76.8667 393.168ZM74.5847 389.458C74.5847 388.744 74.8227 388.142 75.2987 387.652C75.7747 387.162 76.3627 386.924 77.0767 386.924C77.7907 386.924 78.3787 387.162 78.8547 387.652C79.3307 388.142 79.5687 388.744 79.5687 389.458C79.5687 390.172 79.3307 390.774 78.8547 391.264C78.3787 391.754 77.7907 391.992 77.0767 391.992C76.3627 391.992 75.7747 391.754 75.2987 391.264C74.8227 390.774 74.5847 390.172 74.5847 389.458ZM86.0102 391.992C85.4922 391.992 85.0862 391.824 84.7922 391.488C84.4982 391.138 84.3442 390.69 84.3442 390.116V385.944H83.0562V390.41C83.0562 391.25 83.2942 391.922 83.7842 392.412C84.2742 392.916 84.9182 393.168 85.7162 393.168C86.1782 393.168 86.5842 393.07 86.9622 392.86C87.3402 392.65 87.6482 392.356 87.8862 391.978V392.986H89.1182V385.916H87.8302V389.962C87.8302 390.536 87.6622 391.012 87.3262 391.39C86.9902 391.768 86.5562 391.964 86.0102 391.964V391.992ZM94.59 385.762C93.512 385.762 92.616 386.112 91.902 386.826C91.188 387.54 90.824 388.422 90.824 389.472C90.824 390.522 91.188 391.404 91.902 392.118C92.616 392.832 93.512 393.196 94.59 393.196C95.5 393.196 96.284 392.93 96.942 392.384C97.6 391.838 98.034 391.124 98.216 390.242H96.942C96.788 390.76 96.494 391.18 96.06 391.502C95.626 391.824 95.136 391.992 94.59 391.992C93.89 391.992 93.302 391.754 92.826 391.264C92.35 390.774 92.112 390.172 92.112 389.458C92.112 388.744 92.35 388.156 92.826 387.68C93.302 387.204 93.89 386.966 94.59 386.966C95.136 386.966 95.612 387.12 96.032 387.428C96.452 387.736 96.746 388.156 96.9 388.674H98.188C98.006 387.82 97.586 387.12 96.928 386.574C96.27 386.028 95.5 385.762 94.59 385.762ZM100.17 385.93H98.9802V387.078H100.17V390.802C100.17 391.6 100.352 392.188 100.716 392.58C101.08 392.972 101.626 393.168 102.354 393.168C102.592 393.168 102.83 393.14 103.04 393.084C103.264 393.028 103.474 392.944 103.67 392.818V391.67C103.502 391.782 103.32 391.866 103.138 391.936C102.97 391.992 102.802 392.02 102.62 392.02C102.214 392.02 101.92 391.922 101.738 391.726C101.556 391.544 101.472 391.194 101.472 390.704V387.064H103.32V385.916H101.472V383.41L100.184 383.718L100.17 385.93ZM111.125 383.158L107.359 393H108.731L109.613 390.592H113.981L114.863 393H116.305L112.553 383.158H111.125ZM113.561 389.458H110.033L111.797 384.684L113.561 389.458Z" fill="black"/>
<rect x="219" y="104" width="383" height="44" rx="2" fill="#F0F0F0"/>
<rect x="219" y="178" width="383" height="44" rx="2" fill="#F0F0F0"/>
<rect x="219" y="252" width="383" height="253" rx="2" fill="#F0F0F0"/>
</svg>
