<svg width="80" height="81" viewBox="0 0 80 81" fill="none" xmlns="http://www.w3.org/2000/svg">
<rect y="0.925293" width="80" height="80" rx="5" fill="white"/>
<path fill-rule="evenodd" clip-rule="evenodd" d="M49.9997 32.2595C47.4223 32.2595 45.333 30.1702 45.333 27.5928C45.333 25.0154 47.4223 22.9261 49.9997 22.9261C52.5771 22.9261 54.6664 25.0154 54.6664 27.5928C54.6664 30.1702 52.5771 32.2595 49.9997 32.2595Z" fill="#7400B8"/>
<path fill-rule="evenodd" clip-rule="evenodd" d="M29.9997 32.2595C27.4223 32.2595 25.333 30.1702 25.333 27.5928C25.333 25.0154 27.4223 22.9261 29.9997 22.9261C32.577 22.9261 34.6663 25.0154 34.6663 27.5928C34.6663 30.1702 32.577 32.2595 29.9997 32.2595Z" fill="#7400B8"/>
<path fill-rule="evenodd" clip-rule="evenodd" d="M39.9997 42.9261C37.0541 42.9261 34.666 40.5382 34.666 37.5924C34.666 34.6469 37.0538 32.2588 39.9997 32.2588C42.9452 32.2588 45.3333 34.6466 45.3333 37.5924C45.3333 40.5379 42.9455 42.9261 39.9997 42.9261Z" fill="#7400B8"/>
<path fill-rule="evenodd" clip-rule="evenodd" d="M50.6685 53.5913C50.6685 49.1726 47.0861 45.5913 42.6678 45.5913H37.3347C32.9166 45.5913 29.334 49.1726 29.334 53.5913V54.9246C29.334 55.9851 29.756 57.0029 30.5057 57.7532C31.2566 58.5035 32.2733 58.9246 33.3346 58.9246H46.6679C47.729 58.9246 48.7456 58.5032 49.4968 57.7532C50.2462 57.0029 50.6685 55.9854 50.6685 54.9246V53.5913Z" fill="#7400B8"/>
<path fill-rule="evenodd" clip-rule="evenodd" d="M28.0943 48.2595H24.667C23.6063 48.2595 22.589 47.8381 21.8384 47.0881C21.0884 46.3375 20.667 45.3202 20.667 44.2595V42.9261C20.667 40.8041 21.5096 38.7696 23.0105 37.2696C24.5105 35.769 26.545 34.9261 28.667 34.9261H31.3337C31.7024 34.9261 32.0691 34.9514 32.4304 35.0014C32.1519 35.8142 32.0004 36.6859 32.0004 37.5928C32.0004 39.8408 32.9298 41.8741 34.425 43.3274C31.7289 44.0902 29.467 45.8854 28.0944 48.2595L28.0943 48.2595Z" fill="#7400B8"/>
<path fill-rule="evenodd" clip-rule="evenodd" d="M47.5698 35.0008C47.9311 34.9508 48.2978 34.9255 48.6666 34.9255H51.3332C53.4553 34.9255 55.4898 35.7681 56.9898 37.269C58.4904 38.7691 59.3333 40.8036 59.3333 42.9256V44.2589C59.3333 45.3196 58.9119 46.3368 58.1619 47.0875C57.4113 47.8375 56.394 48.2589 55.3333 48.2589H51.9059C50.5332 45.8848 48.2714 44.0895 45.5752 43.3268C47.0704 41.8735 47.9999 39.8401 47.9999 37.5922C47.9999 36.6857 47.8487 35.8136 47.5698 35.0008L47.5698 35.0008Z" fill="#7400B8"/>
</svg>
