<svg width="40" height="44" viewBox="0 0 40 44" fill="none" xmlns="http://www.w3.org/2000/svg">
<g clip-path="url(#clip0_805_242)">
<path d="M39.9059 20.3836C39.8023 19.3153 39.5579 18.2654 39.1791 17.2612C38.6138 15.8167 37.5147 14.4693 36.0388 13.8981C34.2443 13.2042 32.0581 13.4629 30.2457 13.9624C27.6467 14.6802 25.2212 16.0171 22.7867 17.1595L16.6138 20.0516V20.8337V43.7325C21.0072 41.5791 25.2257 39.3884 29.4337 37.1528C34.0694 34.6869 38.4987 31.6767 39.6023 26.1916C39.9908 24.2814 40.0931 22.3239 39.9059 20.3836ZM34.5554 24.4091C34.5479 24.469 34.5434 24.5288 34.5359 24.5886C34.5285 24.6484 34.515 24.7381 34.503 24.8129C34.4911 24.8877 34.4716 24.9953 34.4522 25.0955C34.0828 26.9393 33.1063 28.188 31.7037 29.4097C30.6435 30.3452 29.4824 31.1597 28.2419 31.8382L21.3556 35.3838V23.654L25.0118 21.8446C25.0118 21.8446 34.4836 16.2982 34.5823 22.9422C34.607 23.4312 34.598 23.9213 34.5554 24.4091Z" fill="#77F2A1"/>
<path opacity="0.8" d="M13.0399 41.2427V17.4691L30.3355 8.79735L25.0209 5.44171L8.05127 14.2211V37.9798L13.0399 41.2427Z" fill="#77F2A1"/>
<path opacity="0.4" d="M4.9886 35.6155L4.94075 12.0737L21.8939 3.32573L16.5958 0L0 8.71808V32.3526L4.9886 35.6155Z" fill="#77F2A1"/>
</g>
<defs>
<clipPath id="clip0_805_242">
<rect width="40" height="43.7325" fill="white"/>
</clipPath>
</defs>
</svg>
