<svg width="80" height="80" viewBox="0 0 80 80" fill="none" xmlns="http://www.w3.org/2000/svg">
<rect width="80" height="80" rx="5" fill="white"/>
<path d="M55.8928 54.6592L43.2162 37.8699C42.5478 36.9826 41.5394 36.4151 40.4343 36.3041V33.3172C41.0382 33.4853 41.6632 33.5657 42.2903 33.5562C44.0873 33.5392 45.8501 33.0615 47.4102 32.1696C50.7638 30.2324 52.5301 26.5163 51.8432 25.2961C51.2929 24.3446 49.2831 24.3062 48.6519 24.319C46.8352 24.352 45.0593 24.8648 43.5045 25.805C41.9498 26.7455 40.6711 28.08 39.7985 29.6737C39.7259 29.5371 39.6536 29.4091 39.6024 29.3282L39.6021 29.3279C38.6947 27.8324 37.4292 26.586 35.92 25.7014C32.5623 23.7642 28.4533 24.08 27.7493 25.3002C27.0455 26.5205 28.8246 30.2368 32.1824 32.1737C33.7017 33.0401 35.413 33.5136 37.1616 33.552H37.3152C37.9318 33.5582 38.547 33.4865 39.1455 33.3386V36.3764C38.2089 36.5752 37.3756 37.1056 36.7987 37.8699L24.1222 54.6592C23.9731 54.8524 23.9478 55.1137 24.057 55.3318C24.1659 55.55 24.3903 55.6866 24.6341 55.6833H55.367C55.6107 55.6866 55.8351 55.55 55.9441 55.3318C56.0533 55.1137 56.028 54.8524 55.8789 54.6592L55.8928 54.6592ZM46.4375 27.8562C46.7911 27.8303 47.0986 28.0957 47.1244 28.4493C47.1506 28.8029 46.8849 29.1103 46.5316 29.1362C46.0366 29.294 43.1182 30.877 40.4304 32.4088H40.4301C40.4599 32.3243 40.4813 32.2371 40.4941 32.1484C40.4864 32.2222 40.4632 32.2936 40.4259 32.3576V31.7603C40.4864 31.8695 40.5117 31.9945 40.4986 32.1186C40.5289 31.8243 40.5075 31.5267 40.4346 31.2398V30.9326C45.8703 27.8606 46.267 27.8562 46.4375 27.8562H46.4375ZM33.0745 29.1362C32.7209 29.1115 32.4546 28.805 32.4793 28.4514C32.504 28.0981 32.8105 27.8315 33.1641 27.8562C33.3391 27.8562 33.7316 27.8562 39.1373 30.9154V31.4276C39.103 31.6231 39.0888 31.8219 39.0947 32.0204C39.1004 31.9576 39.1146 31.896 39.1373 31.8371V32.3621C36.4536 30.86 33.5652 29.2898 33.0745 29.132L33.0745 29.1362Z" fill="#7400B8"/>
</svg>
