<svg width="30" height="31" viewBox="0 0 30 31" fill="none" xmlns="http://www.w3.org/2000/svg">
<path d="M9.99805 3.01172C6.13905 3.01172 3 6.15367 3 10.0137V20.0137C3 23.8727 6.14195 27.0117 10.002 27.0117H20.002C23.861 27.0117 27 23.8698 27 20.0098V10.0098C27 6.15077 23.858 3.01172 19.998 3.01172H9.99805ZM22 7.01172C22.552 7.01172 23 7.45972 23 8.01172C23 8.56372 22.552 9.01172 22 9.01172C21.448 9.01172 21 8.56372 21 8.01172C21 7.45972 21.448 7.01172 22 7.01172ZM15 9.01172C18.309 9.01172 21 11.7027 21 15.0117C21 18.3207 18.309 21.0117 15 21.0117C11.691 21.0117 9 18.3207 9 15.0117C9 11.7027 11.691 9.01172 15 9.01172ZM15 11.0117C13.9391 11.0117 12.9217 11.4331 12.1716 12.1833C11.4214 12.9334 11 13.9509 11 15.0117C11 16.0726 11.4214 17.09 12.1716 17.8401C12.9217 18.5903 13.9391 19.0117 15 19.0117C16.0609 19.0117 17.0783 18.5903 17.8284 17.8401C18.5786 17.09 19 16.0726 19 15.0117C19 13.9509 18.5786 12.9334 17.8284 12.1833C17.0783 11.4331 16.0609 11.0117 15 11.0117Z" fill="#BBBBBB"/>
</svg>
