<svg width="31" height="30" viewBox="0 0 31 30" fill="none" xmlns="http://www.w3.org/2000/svg">
<path d="M15.2111 1.20001C7.60193 1.20001 1.41113 7.39021 1.41113 15C1.41113 22.6098 7.60193 28.8 15.2111 28.8C22.8203 28.8 29.0111 22.6098 29.0111 15C29.0111 7.39021 22.8203 1.20001 15.2111 1.20001ZM11.0111 21H8.61113V12H11.0111V21ZM9.81113 10.2C9.14813 10.2 8.61113 9.66301 8.61113 9.00001C8.61113 8.33701 9.14813 7.80001 9.81113 7.80001C10.4741 7.80001 11.0111 8.33701 11.0111 9.00001C11.0111 9.66301 10.4741 10.2 9.81113 10.2ZM22.4111 21H20.0111V18V16.5C20.0111 15.345 19.0661 14.4 17.9111 14.4C16.7561 14.4 15.8111 15.345 15.8111 16.5V21H13.4111V12H15.8111V13.0896C16.5119 12.4164 17.4623 12 18.5111 12C20.6651 12 22.4111 13.746 22.4111 15.9V21Z" fill="#BBBBBB"/>
</svg>
