<svg width="163" height="71" viewBox="0 0 163 71" fill="none" xmlns="http://www.w3.org/2000/svg">
<path d="M80.368 50.4474C82.356 50.4474 83.98 49.9434 85.24 48.9354C86.5 47.9274 87.116 46.5834 87.116 44.9034C87.116 43.8114 86.78 42.8314 86.136 42.0194C85.492 41.2074 84.568 40.6194 83.364 40.2274C84.232 39.7514 84.904 39.1354 85.352 38.3794C85.8 37.6234 86.024 36.7834 86.024 35.8314C86.024 34.2634 85.408 33.0314 84.176 32.1354C82.944 31.2394 81.32 30.7914 79.304 30.7914H71.128V50.4754L80.368 50.4474ZM81.432 36.5034C81.432 37.2034 81.208 37.7634 80.76 38.1554C80.312 38.5474 79.668 38.7434 78.856 38.7434H75.58V34.4594H78.828C79.584 34.4594 80.228 34.6554 80.704 35.0194C81.18 35.3834 81.404 35.8874 81.404 36.5314L81.432 36.5034ZM82.412 44.4834C82.412 45.2394 82.16 45.8274 81.684 46.2474C81.208 46.6674 80.536 46.8914 79.696 46.8914H75.552V42.3274H79.696C80.508 42.3274 81.152 42.5234 81.656 42.9154C82.16 43.3074 82.412 43.8394 82.412 44.5114V44.4834ZM89.4573 32.0794C89.4573 32.8074 89.7093 33.4234 90.1853 33.8994C90.6613 34.3754 91.3053 34.6274 92.0893 34.6274C92.9013 34.6274 93.5453 34.4034 94.0213 33.9274C94.5253 33.4514 94.7773 32.8634 94.7773 32.1354C94.7773 31.3794 94.5253 30.7634 94.0493 30.2874C93.5733 29.8114 92.9293 29.5874 92.1173 29.5874C91.3333 29.5874 90.6893 29.8394 90.2133 30.3154C89.7373 30.7914 89.4853 31.4074 89.4853 32.1634L89.4573 32.0794ZM94.2733 50.5314V36.2794H90.0173V50.5314H94.2733ZM103.825 50.8114C104.805 50.8114 105.701 50.6154 106.513 50.1954C107.325 49.7754 108.025 49.1594 108.613 48.3474V50.4194H112.617V29.6714H108.361V37.8474C107.829 37.1754 107.185 36.6714 106.373 36.3354C105.589 35.9994 104.721 35.8314 103.797 35.8314C101.809 35.8314 100.185 36.5314 98.925 37.9594C97.665 39.3874 97.021 41.2074 97.021 43.4194C97.021 45.6034 97.637 47.3954 98.897 48.7674C100.157 50.1674 101.781 50.8674 103.769 50.8674L103.825 50.8114ZM101.473 43.3914C101.473 42.3554 101.809 41.4874 102.453 40.7874C103.097 40.1154 103.937 39.7794 104.973 39.7794C106.009 39.7794 106.849 40.1154 107.493 40.7874C108.137 41.4314 108.445 42.2994 108.445 43.3914C108.445 44.4274 108.109 45.2954 107.465 45.9954C106.821 46.6954 105.981 47.0314 104.945 47.0314C103.909 47.0314 103.069 46.6954 102.425 45.9954C101.781 45.2954 101.445 44.4274 101.445 43.3914H101.473ZM120.604 50.4474V42.3834C120.604 41.5714 120.828 40.9274 121.276 40.4514C121.724 39.9754 122.34 39.7514 123.124 39.7514C123.908 39.7514 124.496 39.9754 124.888 40.3954C125.28 40.8154 125.476 41.4314 125.476 42.2434V50.4474H129.732V41.0954C129.732 39.5274 129.256 38.2674 128.332 37.2874C127.408 36.3354 126.176 35.8594 124.636 35.8594C123.852 35.8594 123.096 36.0274 122.368 36.3354C121.668 36.6434 121.08 37.0914 120.604 37.6794V29.7274H116.348V50.4754L120.604 50.4474ZM141.281 50.4474H145.313V41.4874C145.313 39.7514 144.781 38.3794 143.689 37.3714C142.597 36.3634 141.085 35.8594 139.209 35.8594C137.445 35.8594 135.961 36.3634 134.757 37.3434C133.553 38.3234 132.909 39.5554 132.825 41.0394H136.941C136.997 40.5074 137.221 40.0874 137.613 39.7794C137.977 39.4714 138.481 39.3314 139.125 39.3314C139.713 39.3314 140.189 39.4994 140.553 39.8074C140.917 40.1154 141.085 40.5354 141.085 41.0674V41.2074L137.585 41.9914C135.849 42.3834 134.561 42.9714 133.749 43.7274C132.937 44.4834 132.517 45.4914 132.517 46.7514C132.517 47.9554 132.937 48.9354 133.805 49.6914C134.673 50.4474 135.793 50.8114 137.165 50.8114C138.005 50.8114 138.789 50.6434 139.489 50.3074C140.217 49.9434 140.805 49.4674 141.225 48.8514L141.281 50.4474ZM138.285 47.5074C137.753 47.5074 137.333 47.3954 137.053 47.1714C136.773 46.9474 136.633 46.6394 136.633 46.2194C136.633 45.8274 136.801 45.4914 137.137 45.2394C137.473 44.9874 137.977 44.7914 138.677 44.6514L141.057 44.1474V44.6234C141.057 45.3794 140.777 46.0514 140.217 46.6394C139.657 47.2274 139.013 47.5354 138.257 47.5354L138.285 47.5074Z" fill="white"/>
<path d="M156.812 50.4474H160.844V41.4874C160.844 39.7514 160.312 38.3794 159.22 37.3714C158.128 36.3634 156.616 35.8594 154.74 35.8594C152.976 35.8594 151.492 36.3634 150.288 37.3434C149.084 38.3234 148.44 39.5554 148.356 41.0394H152.472C152.528 40.5074 152.752 40.0874 153.144 39.7794C153.508 39.4714 154.012 39.3314 154.656 39.3314C155.244 39.3314 155.72 39.4994 156.084 39.8074C156.448 40.1154 156.616 40.5354 156.616 41.0674V41.2074L153.116 41.9914C151.38 42.3834 150.092 42.9714 149.28 43.7274C148.468 44.4834 148.048 45.4914 148.048 46.7514C148.048 47.9554 148.468 48.9354 149.336 49.6914C150.204 50.4474 151.324 50.8114 152.696 50.8114C153.536 50.8114 154.32 50.6434 155.02 50.3074C155.748 49.9434 156.336 49.4674 156.756 48.8514L156.812 50.4474ZM153.816 47.5074C153.284 47.5074 152.864 47.3954 152.584 47.1714C152.304 46.9474 152.164 46.6394 152.164 46.2194C152.164 45.8274 152.332 45.4914 152.668 45.2394C153.004 44.9874 153.508 44.7914 154.208 44.6514L156.588 44.1474V44.6234C156.588 45.3794 156.308 46.0514 155.748 46.6394C155.188 47.2274 154.544 47.5354 153.788 47.5354L153.816 47.5074Z" fill="#80FFDB"/>
<g clip-path="url(#clip0_605_420)">
<path d="M35.1516 17.3551V34.9611H17.6035V52.6901H0V0H17.6035V17.3551H35.1516Z" fill="#80FFDB"/>
<path d="M35.2119 52.5093H17.606V70.1152H35.2119V52.5093Z" fill="#7400B8"/>
<path d="M52.7598 34.9539H35.1538V52.5598H52.7598V34.9539Z" fill="#80FFDB"/>
</g>
<defs>
<clipPath id="clip0_605_420">
<rect width="52.76" height="70.1151" fill="white"/>
</clipPath>
</defs>
</svg>
