<svg width="80" height="80" viewBox="0 0 80 80" fill="none" xmlns="http://www.w3.org/2000/svg">
<rect width="80" height="80" rx="5.7971" fill="white"/>
<path d="M38.5538 26.9387L32.6762 23.9065L21.9473 30.3906L26.8452 33.6093L38.5538 26.9387Z" fill="#7400B8"/>
<path d="M39.9999 27.7314L28.1982 34.4486L39.9999 41.0727L51.848 34.4486L39.9999 27.7314Z" fill="#7400B8"/>
<path d="M38.5538 41.8662L26.8452 35.2424L21.9473 38.4612L32.6762 44.9449L38.5538 41.8662Z" fill="#7400B8"/>
<path d="M32.6292 46.4841C32.4784 46.4809 32.3321 46.4321 32.2093 46.3441L27.4048 43.4518V48.0698C27.436 48.8176 27.8385 49.5 28.4775 49.8893L38.7869 55.9065L39.0669 56.0931V43.0319L32.816 46.3906L32.6292 46.4841Z" fill="#7400B8"/>
<path d="M41.4453 41.8662L47.3229 44.9449L58.0519 38.4612L53.2004 35.2424L41.4453 41.8662Z" fill="#7400B8"/>
<path d="M41.4453 26.9387L53.2004 33.6093L58.0519 30.3906L47.3229 23.9065L41.4453 26.9387Z" fill="#7400B8"/>
<path d="M47.323 46.4842L46.9499 46.3908L40.4658 43.0323V56.0936C40.9323 56.047 40.8389 56.0001 40.9323 55.907L51.5209 49.8895C51.8446 49.708 52.1143 49.444 52.3028 49.1245C52.4912 48.805 52.5917 48.4411 52.5936 48.07V43.452L47.7422 46.3442L47.323 46.4842Z" fill="#7400B8"/>
</svg>
