<svg width="547" height="573" viewBox="0 0 547 573" fill="none" xmlns="http://www.w3.org/2000/svg">
<path d="M493.893 417.167C472.258 456.968 440.314 490.195 401.418 513.353C362.523 536.511 318.115 548.743 272.865 548.763C264.422 548.763 256.085 548.352 247.854 547.529C189.626 541.742 135.249 515.758 94.1261 474.07C78.0514 457.813 64.255 439.447 53.1147 419.473C53.3993 419.358 53.6967 419.279 54.0004 419.236C63.041 418.105 62.2882 426.413 62.2882 426.413C74.3474 419.236 78.8714 430.936 78.8714 430.936C82.2588 423.767 86.4065 428.297 86.4065 428.297C89.4249 416.597 101.078 419.99 101.078 419.99C98.7977 410.936 107.514 406.405 107.514 406.405C90.9305 387.189 111.654 383.382 111.654 383.382C116.178 370.928 127.89 377.344 127.89 377.344C135.049 372.059 140.702 380.744 140.702 380.744C158.038 382.628 152.385 394.328 152.385 394.328C148.245 404.897 142.208 395.459 142.208 395.459C132.791 389.798 130.532 403.589 130.532 403.589C128.717 430.278 146.2 435.851 162.828 435.267C184.747 434.528 204.894 423.065 217.536 405.149C251.596 357.026 244.282 276.405 244.282 276.405H287.485C287.485 276.405 278.629 386.472 320.563 431.653C324.305 435.692 328.924 438.816 334.062 440.786C339.201 442.755 344.722 443.516 350.201 443.012C355.68 442.507 360.97 440.749 365.663 437.874C370.356 434.998 374.328 431.082 377.272 426.427C380.666 421.017 383.598 415.331 386.039 409.428L386.46 408.453C386.46 408.453 378.881 411.69 377.368 402.251C377.368 402.251 369.456 406.405 370.209 393.574C370.209 393.574 373.98 379.99 383.021 389.044C383.021 389.044 390.18 375.459 396.217 390.936C396.217 390.936 406.763 386.782 405.634 397.728C405.634 397.728 420.335 396.597 417.693 406.028C417.693 406.028 436.881 400.744 437.671 410.182C437.671 410.182 451.612 406.028 454.999 418.859C454.999 418.859 463.767 396.923 472.298 417.824C476.616 414.897 489.398 407.447 493.893 417.167Z" fill="#F1F2F2"/>
<path d="M453.081 472.584C429.67 496.727 401.654 515.911 370.696 528.997C339.737 542.084 306.468 548.806 272.865 548.763C264.422 548.763 256.085 548.352 247.854 547.529C238.157 524.728 230.954 491.446 269.655 488.497C314.246 485.09 292.533 468.445 284.15 456.79C280.031 451.084 278.88 433.708 284.15 429.051C294.969 419.487 310.452 427.144 322.224 446.598C336.504 470.19 361.338 467.381 377.759 462.119C397.206 455.851 418.276 456.139 437.294 463.597C443.199 465.903 448.719 468.852 453.081 472.584Z" fill="url(#paint0_linear_664_189)"/>
<path d="M141.558 511.749C124.288 501.142 108.359 488.486 94.1187 474.055C94.9969 474.218 158.887 486.08 164.503 466.398C164.51 466.413 171.352 480.537 141.558 511.749Z" fill="url(#paint1_linear_664_189)"/>
<path d="M525 298.297C525.063 340.312 514.585 381.669 494.527 418.571C451.907 496.967 368.91 550.168 273.5 550.168C179.035 550.168 96.7314 498.009 53.7422 420.877C32.8615 383.41 21.9322 341.204 22.0003 298.297C22.0003 159.191 134.599 46.4261 273.5 46.4261C412.401 46.4261 525 159.191 525 298.297Z" stroke="#2D2D2D" stroke-width="26" stroke-miterlimit="10"/>
<path d="M166.761 525.312C186.429 501.136 195.226 514.964 230.968 437.359C236.208 459.088 243.839 501.321 203.839 539.111C191.133 535.505 178.735 530.89 166.761 525.312Z" fill="url(#paint2_linear_664_189)"/>
<path d="M233.67 425.614C233.67 428.94 232.681 432.932 230.939 437.388C232.688 429.997 233.67 425.614 233.67 425.614Z" fill="url(#paint3_linear_664_189)"/>
<path d="M296.105 272.229V282.428H282.386C282.519 281.371 282.622 280.307 282.696 279.243C282.902 276.286 283.094 273.212 283.264 270.278C291.257 271.017 291.714 271.105 295.95 272.184H296.024H296.083L296.105 272.229Z" fill="url(#paint4_linear_664_189)"/>
<path d="M308.224 79.8039C283.216 74.6544 257.498 73.9489 232.246 77.7196C228.939 78.2222 225.906 78.7618 223.161 79.3087C236.578 46.3374 254.201 24.9552 261.855 16.6625C261.88 16.6269 261.91 16.5946 261.943 16.5664C264.069 14.2457 265.404 12.9448 265.545 12.7675C265.545 12.7675 290.637 36.2487 308.224 79.8039Z" fill="url(#paint5_linear_664_189)"/>
<path d="M311.685 88.8949C284.58 82.8506 256.57 82.0579 229.168 86.5593C225.64 87.1506 222.467 87.7715 219.677 88.3849C213.898 104.522 209.925 121.252 207.832 138.267C205.052 161.374 205.494 184.757 209.145 207.742C210.238 214.816 211.64 222.066 213.396 229.487C217.145 244.742 221.883 258.881 223.478 263.485C223.529 263.641 223.581 263.774 223.625 263.907C223.788 264.35 223.898 264.646 223.972 264.867C224.046 265.089 224.024 265.023 224.038 265.06C224.179 265.444 224.319 265.799 224.467 266.22V266.294C225.48 269.058 226.54 271.845 227.647 274.653C227.675 274.713 227.7 274.775 227.721 274.838L227.78 274.978C230.014 274.264 232.25 273.613 234.489 273.027H234.57C237.227 272.332 239.886 271.726 242.548 271.209C243.101 271.091 243.655 270.987 244.201 270.891L244.4 270.854C244.419 270.847 244.44 270.847 244.459 270.854C245.611 270.642 246.754 270.45 247.891 270.278C246.592 247.757 246.496 227.41 249.087 216.885C251.301 208.016 257.456 196.826 261.596 189.96C262.008 189.276 262.589 188.71 263.283 188.317C263.978 187.924 264.762 187.718 265.559 187.718C266.357 187.718 267.141 187.924 267.835 188.317C268.529 188.71 269.111 189.276 269.522 189.96C273.662 196.826 279.854 208.023 282.031 216.885C284.622 227.417 284.526 247.728 283.234 270.219C287.534 270.811 291.784 271.717 295.95 272.931H296.024H296.083C298.504 273.557 300.925 274.256 303.345 275.03C304.669 271.699 305.923 268.393 307.109 265.111C307.109 265.074 307.146 265.015 307.176 264.919C307.205 264.823 307.36 264.402 307.522 263.958C307.567 263.825 307.618 263.692 307.67 263.537C309.264 258.903 314.002 244.764 317.751 229.538C319.508 222.147 320.91 214.867 322.002 207.794C329.441 159.915 322.725 119.937 311.685 88.8949ZM265.589 165.281C259.553 165.281 253.653 163.489 248.634 160.13C243.616 156.772 239.704 151.999 237.395 146.415C235.085 140.83 234.481 134.685 235.658 128.757C236.836 122.828 239.742 117.383 244.01 113.109C248.278 108.835 253.715 105.924 259.635 104.745C265.555 103.565 271.691 104.171 277.267 106.484C282.843 108.797 287.609 112.714 290.962 117.74C294.316 122.766 296.105 128.675 296.105 134.719C296.105 142.825 292.89 150.598 287.167 156.33C281.444 162.061 273.682 165.281 265.589 165.281Z" fill="url(#paint6_linear_664_189)"/>
<path d="M311.685 88.8949C284.58 82.8506 256.571 82.0578 229.168 86.5593C225.64 87.1506 222.467 87.7714 219.677 88.3849C220.794 85.2757 221.955 82.2429 223.161 79.2865C225.906 78.7396 228.939 78.2001 232.246 77.6975C257.51 73.9224 283.241 74.6279 308.261 79.7817C309.427 82.748 310.568 85.7857 311.685 88.8949Z" fill="url(#paint7_linear_664_189)"/>
<path d="M283.257 270.278C283.257 270.278 305.515 91.0161 277.626 44.4675C277.626 44.4675 333.147 88.9245 300.445 274.158C294.82 272.438 289.075 271.141 283.257 270.278Z" fill="url(#paint8_linear_664_189)"/>
<path d="M224.046 265.148C195.603 270.706 173.352 313.929 173.352 313.929C152.629 241.889 209.146 207.772 209.146 207.772C210.158 215.093 211.577 222.353 213.397 229.516C216.115 241.03 219.481 252.381 223.478 263.515C223.529 263.67 223.581 263.803 223.625 263.936C223.788 264.38 223.899 264.675 223.972 264.897C224.046 265.119 224.024 265.052 224.039 265.089C224.045 265.097 224.049 265.107 224.05 265.118C224.052 265.128 224.05 265.139 224.046 265.148Z" fill="url(#paint9_linear_664_189)"/>
<path d="M357.796 313.944C357.796 313.944 335.545 270.706 307.102 265.163C307.102 265.126 307.138 265.067 307.168 264.971C307.198 264.875 307.352 264.453 307.515 264.01C307.559 263.877 307.611 263.744 307.662 263.589C311.659 252.455 315.025 241.104 317.744 229.59C319.563 222.427 320.982 215.167 321.995 207.846C321.995 207.846 378.549 241.889 357.796 313.944Z" fill="url(#paint10_linear_664_189)"/>
<path d="M248.482 279.243C248.556 280.307 248.659 281.372 248.792 282.428H235.072V273.042C237.604 272.347 240.113 271.763 242.578 271.275C243.131 271.157 243.685 271.054 244.231 270.958L244.43 270.921C244.449 270.913 244.47 270.913 244.489 270.921C245.633 270.714 246.777 270.529 247.921 270.359C248.091 273.286 248.275 276.257 248.482 279.243Z" fill="url(#paint11_linear_664_189)"/>
<path style="mix-blend-mode:multiply" opacity="0.39" d="M265.131 187.801C265.131 187.801 207.979 225.059 227.81 275.067C227.81 275.067 242.076 270.765 247.921 270.337C253.766 269.908 261.803 267.646 261.803 267.646L265.131 187.801Z" fill="url(#paint12_linear_664_189)"/>
<path d="M283.257 270.278C283.257 270.278 283.257 270.329 283.257 270.352C283.087 273.308 282.902 276.264 282.696 279.221C282.622 280.285 282.519 281.349 282.386 282.406C281.516 289.705 279.163 296.748 275.471 303.101C272.888 307.499 269.567 311.712 265.589 313.907C261.603 311.689 258.29 307.499 255.707 303.101C252.015 296.748 249.661 289.705 248.792 282.406C248.659 281.349 248.555 280.285 248.482 279.221C248.275 276.264 248.09 273.264 247.921 270.352C246.622 247.831 246.526 227.484 249.116 216.959C251.33 208.09 257.485 196.9 261.626 190.033C262.037 189.349 262.618 188.784 263.313 188.391C264.007 187.998 264.791 187.792 265.589 187.792C266.386 187.792 267.17 187.998 267.865 188.391C268.559 188.784 269.14 189.349 269.552 190.033C273.692 196.9 279.884 208.097 282.061 216.959C284.652 227.476 284.556 247.802 283.257 270.278Z" fill="url(#paint13_linear_664_189)"/>
<path style="mix-blend-mode:multiply" opacity="0.39" d="M264.186 105.406C258.151 105.406 252.25 107.199 247.232 110.557C242.214 113.915 238.302 118.688 235.992 124.273C233.683 129.857 233.078 136.002 234.256 141.931C235.433 147.859 238.34 153.305 242.608 157.579C246.875 161.853 252.313 164.764 258.233 165.943C264.152 167.122 270.288 166.517 275.865 164.204C281.441 161.89 286.207 157.973 289.56 152.947C292.913 147.922 294.703 142.013 294.703 135.968C294.703 127.863 291.488 120.089 285.765 114.358C280.042 108.626 272.28 105.406 264.186 105.406ZM264.186 155.54C260.321 155.54 256.543 154.392 253.329 152.241C250.115 150.091 247.61 147.034 246.131 143.458C244.652 139.882 244.265 135.946 245.019 132.15C245.773 128.354 247.635 124.866 250.368 122.129C253.101 119.392 256.583 117.528 260.374 116.773C264.165 116.018 268.094 116.405 271.665 117.887C275.236 119.368 278.288 121.876 280.435 125.095C282.583 128.313 283.729 132.097 283.729 135.968C283.729 141.159 281.67 146.137 278.005 149.807C274.34 153.478 269.369 155.54 264.186 155.54Z" fill="url(#paint14_linear_664_189)"/>
<path d="M265.589 104.157C259.553 104.157 253.653 105.95 248.634 109.308C243.616 112.666 239.704 117.439 237.395 123.024C235.085 128.608 234.481 134.753 235.658 140.681C236.836 146.61 239.742 152.055 244.01 156.33C248.278 160.604 253.715 163.515 259.635 164.694C265.555 165.873 271.691 165.268 277.267 162.955C282.843 160.641 287.609 156.724 290.962 151.698C294.316 146.673 296.105 140.764 296.105 134.719C296.105 126.614 292.89 118.84 287.167 113.109C281.444 107.377 273.682 104.157 265.589 104.157ZM265.589 154.291C261.723 154.291 257.945 153.143 254.731 150.992C251.518 148.842 249.013 145.785 247.534 142.209C246.055 138.633 245.667 134.697 246.422 130.901C247.176 127.105 249.037 123.617 251.77 120.88C254.503 118.143 257.985 116.279 261.776 115.524C265.567 114.769 269.496 115.156 273.067 116.638C276.638 118.119 279.69 120.627 281.838 123.846C283.985 127.064 285.131 130.848 285.131 134.719C285.131 139.91 283.072 144.888 279.407 148.558C275.742 152.229 270.772 154.291 265.589 154.291Z" fill="url(#paint15_linear_664_189)"/>
<path d="M274.51 156.288C286.405 151.353 292.054 137.695 287.127 125.782C282.2 113.868 268.562 108.211 256.666 113.146C244.77 118.08 239.121 131.738 244.049 143.652C248.976 155.565 262.614 161.222 274.51 156.288Z" fill="url(#paint16_linear_664_189)"/>
<path d="M287.832 127.72C283.767 126.444 279.43 126.307 275.292 127.325C271.155 128.344 267.375 130.478 264.363 133.496C261.351 136.514 259.222 140.3 258.207 144.444C257.192 148.589 257.331 152.932 258.607 157.003C254.783 155.8 251.334 153.631 248.592 150.703C245.849 147.776 243.907 144.191 242.952 140.293C241.996 136.394 242.061 132.316 243.138 128.45C244.216 124.584 246.271 121.061 249.104 118.222C251.937 115.383 255.454 113.324 259.313 112.243C263.173 111.162 267.246 111.095 271.139 112.05C275.032 113.004 278.613 114.948 281.537 117.693C284.461 120.438 286.629 123.891 287.832 127.72Z" fill="#65C1A2"/>
<path style="mix-blend-mode:multiply" opacity="0.39" d="M234.599 273.094H234.518L227.81 275.045L227.751 274.904C227.729 274.842 227.705 274.78 227.677 274.72C227.293 273.796 226.112 270.906 224.496 266.36V266.287C217.455 246.456 200.142 198.43 207.854 138.282C209.987 121.274 213.959 104.548 219.699 88.3997C220.801 85.2807 221.955 82.243 223.16 79.2866C236.577 46.3375 254.201 24.9553 261.854 16.6626C261.88 16.627 261.909 16.5947 261.943 16.5665C263.138 15.2952 264.356 14.0388 265.633 12.7823C265.161 13.4031 246.806 37.9117 232.297 77.7197C231.249 80.5948 230.216 83.5586 229.219 86.5889C213.47 134.15 204.732 200.499 234.599 273.094Z" fill="url(#paint17_linear_664_189)"/>
<path d="M265.589 109.294C266.241 109.294 266.769 108.765 266.769 108.112C266.769 107.458 266.241 106.929 265.589 106.929C264.936 106.929 264.408 107.458 264.408 108.112C264.408 108.765 264.936 109.294 265.589 109.294Z" fill="url(#paint18_linear_664_189)"/>
<path d="M252.305 112.856C252.957 112.856 253.486 112.327 253.486 111.674C253.486 111.021 252.957 110.491 252.305 110.491C251.653 110.491 251.124 111.021 251.124 111.674C251.124 112.327 251.653 112.856 252.305 112.856Z" fill="url(#paint19_linear_664_189)"/>
<path d="M242.577 122.598C243.229 122.598 243.758 122.068 243.758 121.415C243.758 120.762 243.229 120.233 242.577 120.233C241.925 120.233 241.396 120.762 241.396 121.415C241.396 122.068 241.925 122.598 242.577 122.598Z" fill="url(#paint20_linear_664_189)"/>
<path d="M239.02 135.902C239.672 135.902 240.201 135.372 240.201 134.719C240.201 134.066 239.672 133.537 239.02 133.537C238.368 133.537 237.839 134.066 237.839 134.719C237.839 135.372 238.368 135.902 239.02 135.902Z" fill="url(#paint21_linear_664_189)"/>
<path d="M242.577 149.206C243.229 149.206 243.758 148.676 243.758 148.023C243.758 147.37 243.229 146.84 242.577 146.84C241.925 146.84 241.396 147.37 241.396 148.023C241.396 148.676 241.925 149.206 242.577 149.206Z" fill="url(#paint22_linear_664_189)"/>
<path d="M252.305 158.947C252.957 158.947 253.486 158.417 253.486 157.764C253.486 157.111 252.957 156.582 252.305 156.582C251.653 156.582 251.124 157.111 251.124 157.764C251.124 158.417 251.653 158.947 252.305 158.947Z" fill="url(#paint23_linear_664_189)"/>
<path d="M265.589 162.509C266.241 162.509 266.769 161.98 266.769 161.327C266.769 160.674 266.241 160.144 265.589 160.144C264.936 160.144 264.408 160.674 264.408 161.327C264.408 161.98 264.936 162.509 265.589 162.509Z" fill="url(#paint24_linear_664_189)"/>
<path d="M278.873 158.947C279.525 158.947 280.054 158.417 280.054 157.764C280.054 157.111 279.525 156.582 278.873 156.582C278.221 156.582 277.692 157.111 277.692 157.764C277.692 158.417 278.221 158.947 278.873 158.947Z" fill="url(#paint25_linear_664_189)"/>
<path d="M288.6 149.206C289.252 149.206 289.781 148.676 289.781 148.023C289.781 147.37 289.252 146.84 288.6 146.84C287.948 146.84 287.419 147.37 287.419 148.023C287.419 148.676 287.948 149.206 288.6 149.206Z" fill="url(#paint26_linear_664_189)"/>
<path d="M292.157 135.902C292.809 135.902 293.338 135.372 293.338 134.719C293.338 134.066 292.809 133.537 292.157 133.537C291.505 133.537 290.976 134.066 290.976 134.719C290.976 135.372 291.505 135.902 292.157 135.902Z" fill="url(#paint27_linear_664_189)"/>
<path d="M288.6 122.598C289.252 122.598 289.781 122.068 289.781 121.415C289.781 120.762 289.252 120.233 288.6 120.233C287.948 120.233 287.419 120.762 287.419 121.415C287.419 122.068 287.948 122.598 288.6 122.598Z" fill="url(#paint28_linear_664_189)"/>
<path d="M278.873 112.856C279.525 112.856 280.054 112.327 280.054 111.674C280.054 111.021 279.525 110.491 278.873 110.491C278.221 110.491 277.692 111.021 277.692 111.674C277.692 112.327 278.221 112.856 278.873 112.856Z" fill="url(#paint29_linear_664_189)"/>
<defs>
<linearGradient id="paint0_linear_664_189" x1="240.171" y1="486.856" x2="453.081" y2="486.856" gradientUnits="userSpaceOnUse">
<stop stop-color="#FCEB81"/>
<stop offset="1" stop-color="white" stop-opacity="0"/>
</linearGradient>
<linearGradient id="paint1_linear_664_189" x1="185.632" y1="428.637" x2="116.155" y2="494.315" gradientUnits="userSpaceOnUse">
<stop offset="0.34" stop-color="#FCEB81"/>
<stop offset="1" stop-color="white" stop-opacity="0"/>
</linearGradient>
<linearGradient id="paint2_linear_664_189" x1="230.378" y1="417.344" x2="191.774" y2="532.158" gradientUnits="userSpaceOnUse">
<stop offset="0.34" stop-color="#FCEB81"/>
<stop offset="1" stop-color="white" stop-opacity="0"/>
</linearGradient>
<linearGradient id="paint3_linear_664_189" x1="234.932" y1="423.774" x2="230.529" y2="436.882" gradientUnits="userSpaceOnUse">
<stop offset="0.34" stop-color="#FCEB81"/>
<stop offset="1" stop-color="white"/>
</linearGradient>
<linearGradient id="paint4_linear_664_189" x1="282.386" y1="276.353" x2="296.105" y2="276.353" gradientUnits="userSpaceOnUse">
<stop stop-color="#7400B8"/>
<stop offset="0.33" stop-color="#7200B6"/>
<stop offset="0.5" stop-color="#6A00B0"/>
<stop offset="0.58" stop-color="#6300AA"/>
<stop offset="0.85" stop-color="#51008C"/>
<stop offset="1" stop-color="#4A007F"/>
</linearGradient>
<linearGradient id="paint5_linear_664_189" x1="223.161" y1="46.2857" x2="280.932" y2="46.2857" gradientUnits="userSpaceOnUse">
<stop offset="0.01" stop-color="#7400B8"/>
<stop offset="0.45" stop-color="#7200B6"/>
<stop offset="0.68" stop-color="#6A00B0"/>
<stop offset="0.79" stop-color="#6300AA"/>
</linearGradient>
<linearGradient id="paint6_linear_664_189" x1="206.024" y1="179.39" x2="325.154" y2="179.39" gradientUnits="userSpaceOnUse">
<stop stop-color="#5D00A0"/>
<stop offset="0.38" stop-color="#6300AA"/>
<stop offset="0.59" stop-color="#4F008C"/>
<stop offset="0.85" stop-color="#3A006B"/>
<stop offset="1" stop-color="#32005E"/>
</linearGradient>
<linearGradient id="paint7_linear_664_189" x1="219.677" y1="82.1321" x2="311.685" y2="82.1321" gradientUnits="userSpaceOnUse">
<stop stop-color="#80FFDB"/>
<stop offset="0.56" stop-color="#78EAC7"/>
<stop offset="0.67" stop-color="#75E5C2"/>
<stop offset="1" stop-color="#6FD8B8"/>
</linearGradient>
<linearGradient id="paint8_linear_664_189" x1="297.892" y1="-21.379" x2="286.856" y2="368.695" gradientUnits="userSpaceOnUse">
<stop stop-color="white" stop-opacity="0.44"/>
<stop offset="0.17" stop-color="#F4F4F4" stop-opacity="0.42"/>
<stop offset="0.36" stop-color="#D3D3D3" stop-opacity="0.36"/>
<stop offset="0.58" stop-color="#9C9C9C" stop-opacity="0.27"/>
<stop offset="0.8" stop-color="#505050" stop-opacity="0.14"/>
<stop offset="1" stop-opacity="0"/>
</linearGradient>
<linearGradient id="paint9_linear_664_189" x1="177.994" y1="313.766" x2="200.184" y2="256.057" gradientUnits="userSpaceOnUse">
<stop offset="0.38" stop-color="#6300AA"/>
<stop offset="0.73" stop-color="#51008C"/>
<stop offset="0.93" stop-color="#4A007F"/>
</linearGradient>
<linearGradient id="paint10_linear_664_189" x1="291.434" y1="238.459" x2="408.174" y2="292.216" gradientUnits="userSpaceOnUse">
<stop stop-color="#5D00A0"/>
<stop offset="0.38" stop-color="#6300AA"/>
<stop offset="0.77" stop-color="#51008C"/>
<stop offset="1" stop-color="#4A007F"/>
</linearGradient>
<linearGradient id="paint11_linear_664_189" x1="235.072" y1="276.39" x2="260.91" y2="276.39" gradientUnits="userSpaceOnUse">
<stop stop-color="#7400B8"/>
<stop offset="0.33" stop-color="#7200B6"/>
<stop offset="0.5" stop-color="#6A00B0"/>
<stop offset="0.58" stop-color="#6300AA"/>
</linearGradient>
<linearGradient id="paint12_linear_664_189" x1="311.574" y1="243.19" x2="216.546" y2="226.077" gradientUnits="userSpaceOnUse">
<stop/>
<stop offset="0.1" stop-color="#050505"/>
<stop offset="0.23" stop-color="#141414"/>
<stop offset="0.36" stop-color="#2C2C2C"/>
<stop offset="0.5" stop-color="#4D4D4D"/>
<stop offset="0.65" stop-color="#797979"/>
<stop offset="0.8" stop-color="#AEAEAE"/>
<stop offset="0.95" stop-color="#EBEBEB"/>
<stop offset="1" stop-color="white"/>
</linearGradient>
<linearGradient id="paint13_linear_664_189" x1="298.873" y1="250.255" x2="236.127" y2="251.383" gradientUnits="userSpaceOnUse">
<stop stop-color="#7400B8"/>
<stop offset="0.33" stop-color="#7200B6"/>
<stop offset="0.5" stop-color="#6A00B0"/>
<stop offset="0.58" stop-color="#6300AA"/>
<stop offset="0.85" stop-color="#51008C"/>
<stop offset="1" stop-color="#4A007F"/>
</linearGradient>
<linearGradient id="paint14_linear_664_189" x1="311.426" y1="102.738" x2="263.896" y2="136.072" gradientUnits="userSpaceOnUse">
<stop offset="1" stop-color="white"/>
</linearGradient>
<linearGradient id="paint15_linear_664_189" x1="312.829" y1="101.489" x2="265.299" y2="134.823" gradientUnits="userSpaceOnUse">
<stop stop-color="#5D00A0"/>
<stop offset="0.56" stop-color="#6300AA"/>
<stop offset="0.84" stop-color="#51008C"/>
<stop offset="1" stop-color="#4A007F"/>
</linearGradient>
<linearGradient id="paint16_linear_664_189" x1="242.277" y1="134.718" x2="288.905" y2="134.718" gradientUnits="userSpaceOnUse">
<stop stop-color="#80FFDB"/>
<stop offset="0.56" stop-color="#78EAC7"/>
<stop offset="0.67" stop-color="#75E5C2"/>
<stop offset="1" stop-color="#6FD8B8"/>
</linearGradient>
<linearGradient id="paint17_linear_664_189" x1="209.19" y1="101.149" x2="293.16" y2="196.637" gradientUnits="userSpaceOnUse">
<stop/>
<stop offset="0.1" stop-color="#050505"/>
<stop offset="0.23" stop-color="#141414"/>
<stop offset="0.36" stop-color="#2C2C2C"/>
<stop offset="0.5" stop-color="#4D4D4D"/>
<stop offset="0.65" stop-color="#797979"/>
<stop offset="0.8" stop-color="#AEAEAE"/>
<stop offset="0.95" stop-color="#EBEBEB"/>
<stop offset="1" stop-color="white"/>
</linearGradient>
<linearGradient id="paint18_linear_664_189" x1="267.411" y1="106.825" x2="265.579" y2="108.116" gradientUnits="userSpaceOnUse">
<stop offset="1" stop-color="white"/>
</linearGradient>
<linearGradient id="paint19_linear_664_189" x1="253.24" y1="109.65" x2="252.292" y2="111.689" gradientUnits="userSpaceOnUse">
<stop offset="1" stop-color="white"/>
</linearGradient>
<linearGradient id="paint20_linear_664_189" x1="242.378" y1="119.197" x2="242.575" y2="121.428" gradientUnits="userSpaceOnUse">
<stop offset="1" stop-color="white"/>
</linearGradient>
<linearGradient id="paint21_linear_664_189" x1="237.736" y1="132.894" x2="239.03" y2="134.725" gradientUnits="userSpaceOnUse">
<stop offset="1" stop-color="white"/>
</linearGradient>
<linearGradient id="paint22_linear_664_189" x1="240.554" y1="147.087" x2="242.589" y2="148.026" gradientUnits="userSpaceOnUse">
<stop offset="1" stop-color="white"/>
</linearGradient>
<linearGradient id="paint23_linear_664_189" x1="250.082" y1="157.959" x2="252.316" y2="157.766" gradientUnits="userSpaceOnUse">
<stop offset="1" stop-color="white"/>
</linearGradient>
<linearGradient id="paint24_linear_664_189" x1="263.766" y1="162.613" x2="265.598" y2="161.329" gradientUnits="userSpaceOnUse">
<stop offset="1" stop-color="white"/>
</linearGradient>
<linearGradient id="paint25_linear_664_189" x1="277.94" y1="159.785" x2="278.885" y2="157.755" gradientUnits="userSpaceOnUse">
<stop offset="1" stop-color="white"/>
</linearGradient>
<linearGradient id="paint26_linear_664_189" x1="288.8" y1="150.248" x2="288.6" y2="148.007" gradientUnits="userSpaceOnUse">
<stop offset="1" stop-color="white"/>
</linearGradient>
<linearGradient id="paint27_linear_664_189" x1="293.441" y1="136.545" x2="292.147" y2="134.706" gradientUnits="userSpaceOnUse">
<stop offset="1" stop-color="white"/>
</linearGradient>
<linearGradient id="paint28_linear_664_189" x1="290.622" y1="122.358" x2="288.59" y2="121.409" gradientUnits="userSpaceOnUse">
<stop offset="1" stop-color="white"/>
</linearGradient>
<linearGradient id="paint29_linear_664_189" x1="281.093" y1="111.476" x2="278.862" y2="111.679" gradientUnits="userSpaceOnUse">
<stop offset="1" stop-color="white"/>
</linearGradient>
</defs>
</svg>
