<svg width="30" height="31" viewBox="0 0 30 31" fill="none" xmlns="http://www.w3.org/2000/svg">
<path d="M28 6.94872C27.043 7.37372 26.015 7.65972 24.936 7.78872C26.038 7.12872 26.883 6.08372 27.281 4.83772C26.251 5.44872 25.109 5.89272 23.893 6.13272C22.92 5.09572 21.534 4.44772 20 4.44772C17.054 4.44772 14.666 6.83672 14.666 9.78172C14.666 10.1997 14.714 10.6077 14.804 10.9967C10.371 10.7747 6.44102 8.65072 3.80902 5.42272C3.35102 6.21072 3.08802 7.12672 3.08802 8.10572C3.08802 9.95572 4.02902 11.5887 5.46002 12.5447C4.58602 12.5167 3.76302 12.2767 3.04402 11.8777C3.04402 11.9007 3.04402 11.9217 3.04402 11.9447C3.04402 14.5297 4.88202 16.6857 7.32302 17.1747C6.87602 17.2967 6.40402 17.3617 5.91702 17.3617C5.57402 17.3617 5.23902 17.3277 4.91402 17.2667C5.59302 19.3857 7.56302 20.9287 9.89702 20.9717C8.07202 22.4027 5.77202 23.2557 3.27202 23.2557C2.84202 23.2557 2.41702 23.2307 1.99902 23.1807C4.36002 24.6937 7.16302 25.5767 10.176 25.5767C19.988 25.5767 25.352 17.4487 25.352 10.3997C25.352 10.1687 25.347 9.93872 25.337 9.70972C26.38 8.95672 27.285 8.01772 28 6.94872Z" fill="#BBBBBB"/>
</svg>
