<?xml version="1.0" standalone="no"?>
<!DOCTYPE svg PUBLIC "-//W3C//DTD SVG 20010904//EN"
 "http://www.w3.org/TR/2001/REC-SVG-20010904/DTD/svg10.dtd">
<svg version="1.0" xmlns="http://www.w3.org/2000/svg"
 width="1304.000000pt" height="1304.000000pt" viewBox="0 0 1304.000000 1304.000000"
 preserveAspectRatio="xMidYMid meet">
<metadata>
Created by potrace 1.14, written by Peter Selinger 2001-2017
</metadata>
<g transform="translate(0.000000,1304.000000) scale(0.100000,-0.100000)"
fill="#000000" stroke="none">
<path d="M2 7253 l3 -2108 690 -1 c380 -1 696 -2 702 -3 10 -1 13 -83 12 -358
0 -197 0 -510 1 -695 l0 -337 703 1 704 0 -1 699 c-1 458 2 700 9 702 6 2 322
3 703 3 l692 -1 0 705 0 705 -703 0 -702 0 -2 675 c-1 371 -2 689 -2 705 l-1
30 -700 -2 -700 -2 0 67 c0 37 -1 349 -1 695 l1 627 -705 0 -705 0 2 -2107z
m2804 -695 c7 -8 8 -1388 0 -1395 -4 -4 -61 -5 -136 -2 -8 0 -42 0 -75 -1 -33
-1 -64 -1 -70 0 -5 1 -12 2 -15 1 -5 -2 -507 -1 -540 0 -8 1 -67 0 -130 0 -63
0 -122 0 -130 0 -8 0 -43 0 -77 -1 -34 -1 -66 1 -72 4 -5 4 -12 3 -14 -1 -4
-6 -71 -8 -129 -4 -8 1 -11 1394 -4 1402 7 7 1385 3 1392 -3z"/>
<path d="M7340 6990 c-71 -10 -128 -48 -158 -106 -17 -33 -31 -104 -21 -109 4
-3 6 -11 3 -18 -7 -20 21 -79 53 -109 100 -95 275 -69 341 50 52 94 14 225
-77 268 -20 10 -37 17 -38 16 -2 0 -15 3 -30 7 -16 4 -48 4 -73 1z"/>
<path d="M8670 6663 l0 -325 -47 42 c-58 51 -80 62 -163 88 -71 22 -74 22
-172 23 -249 0 -456 -182 -510 -447 -19 -90 -15 -269 6 -346 43 -157 149 -290
281 -353 89 -42 150 -55 246 -50 137 6 231 45 318 131 29 30 55 54 57 54 2 0
4 -35 4 -77 l0 -78 143 1 c78 1 150 2 160 3 16 1 17 45 15 829 l-3 827 -167 1
-168 1 0 -324z m-157 -508 c55 -23 112 -79 135 -133 41 -96 30 -236 -25 -311
-19 -25 -111 -100 -122 -99 -3 0 -8 -1 -11 -2 -8 -3 -72 -11 -95 -12 -175 -7
-306 164 -271 354 18 101 107 199 194 214 15 3 28 7 31 9 9 10 129 -5 164 -20z"/>
<path d="M9335 6982 l-30 -3 2 -822 c1 -452 2 -825 2 -828 1 -4 77 -6 170 -5
l170 0 0 341 c0 187 2 349 5 360 22 102 92 154 201 151 79 -2 126 -26 156 -79
l24 -42 1 -358 c1 -197 5 -361 9 -365 3 -4 80 -7 171 -7 l163 -1 -2 426 c-2
380 -4 430 -20 470 -10 25 -19 50 -20 55 -5 18 -41 69 -72 101 -146 150 -428
153 -582 5 l-33 -31 0 37 c-1 21 -1 163 -1 316 l1 277 -28 1 c-110 3 -262 4
-287 1z"/>
<path d="M5695 6892 c-3 -3 -5 -357 -5 -787 l0 -782 413 3 c411 3 460 4 507
18 150 44 246 112 309 220 33 58 42 91 47 176 9 167 -70 297 -225 372 l-65 31
30 20 c49 36 110 100 128 137 26 51 48 130 42 146 -3 8 -2 14 2 14 13 0 1 107
-20 170 -31 97 -134 184 -276 234 -23 8 -42 13 -42 11 0 -2 -15 1 -32 7 -34
11 -802 20 -813 10z m691 -301 c120 -33 165 -160 93 -262 -29 -41 -111 -72
-186 -70 -7 0 -42 0 -78 0 -145 0 -159 1 -165 11 -7 11 -5 315 3 326 7 13 284
9 333 -5z m102 -641 c67 -30 95 -70 100 -140 5 -73 -19 -124 -76 -165 l-44
-30 -211 -3 -212 -4 0 181 c0 150 2 181 14 183 8 2 96 3 196 2 167 -1 187 -3
233 -24z"/>
<path d="M11028 6485 c-2 -2 -15 -6 -28 -9 -194 -39 -363 -210 -372 -376 -1
-23 15 -25 159 -25 l158 1 17 35 c22 45 68 88 99 95 44 9 107 6 143 -7 40 -15
81 -70 81 -109 0 -23 -7 -27 -68 -42 -37 -9 -82 -19 -101 -22 -18 -3 -39 -8
-47 -10 -8 -3 -25 -8 -39 -10 -173 -33 -324 -115 -384 -210 -49 -78 -57 -232
-15 -313 64 -124 193 -192 356 -187 66 2 169 30 191 51 7 7 17 13 21 13 5 0
28 18 52 40 l44 40 3 -52 c2 -29 7 -55 12 -58 5 -3 78 -6 162 -5 l153 0 0 380
c1 240 -3 402 -10 440 -41 219 -215 343 -482 343 -55 1 -103 -1 -105 -3z m256
-697 c-6 -73 -26 -117 -70 -162 -42 -41 -133 -84 -148 -68 -4 3 -19 6 -34 7
-89 4 -133 101 -75 164 20 22 146 66 208 74 51 7 98 17 104 22 10 11 18 -7 15
-37z"/>
<path d="M12245 6479 c-75 -15 -184 -71 -241 -126 -78 -72 -119 -148 -130
-238 l-5 -40 158 1 c152 0 189 5 178 23 -2 5 5 24 18 42 68 103 256 92 298
-18 18 -48 12 -61 -33 -69 -24 -4 -45 -8 -48 -9 -14 -4 -249 -61 -285 -69 -5
-1 -27 -10 -49 -19 -21 -9 -42 -17 -46 -17 -12 0 -122 -80 -142 -103 -79 -93
-96 -253 -39 -366 58 -112 199 -182 353 -175 106 5 191 39 263 105 23 21 44
39 46 39 2 0 3 -21 2 -47 0 -25 1 -51 3 -57 3 -8 53 -11 152 -10 81 1 152 2
159 3 9 1 11 94 9 404 -2 221 -6 415 -9 431 -15 79 -132 246 -174 246 -7 0
-13 3 -13 8 0 9 -74 40 -138 56 -58 16 -217 18 -287 5z m281 -702 c-7 -76 -45
-138 -111 -184 -27 -18 -90 -39 -107 -35 -3 1 -21 4 -40 7 -64 10 -80 26 -94
88 -2 10 3 33 11 51 17 35 81 71 144 81 19 3 37 8 41 10 4 2 22 7 41 10 19 3
47 8 64 11 16 3 31 7 34 9 12 12 20 -11 17 -48z"/>
<path d="M7204 6444 c3 -8 1 -14 -5 -14 -6 0 -7 -5 -3 -11 6 -10 9 -101 4
-124 -1 -5 -1 -13 0 -17 5 -20 3 -119 -3 -124 -4 -4 -4 -12 0 -17 7 -12 7
-236 0 -244 -3 -2 -1 -18 3 -34 5 -17 5 -31 -1 -35 -5 -3 -6 -10 -3 -16 9 -14
9 -222 0 -236 -4 -7 -4 -12 1 -12 4 0 8 -25 8 -55 0 -30 -4 -55 -8 -55 -5 0
-5 -5 -1 -12 4 -6 7 -32 7 -57 -1 -25 3 -50 7 -56 9 -11 316 -12 327 -2 4 5 8
1088 4 1128 -1 4 -78 6 -172 6 -139 0 -169 -2 -165 -13z"/>
</g>
</svg>
